<svg id="Layer_1" data-name="Layer 1" xmlns="http://www.w3.org/2000/svg" viewBox="0 0 432 496"><defs><style>.cls-1{fill:#fff;}.cls-2{fill:teal;}</style></defs><path class="cls-1" d="M441.7,250l-15.5-4a184.06,184.06,0,0,1-356.4,0l-15.5,4A199.73,199.73,0,0,0,208,395.82V496h16V398.39A200.53,200.53,0,0,0,248,400a200.53,200.53,0,0,0,24-1.61V496h16V395.82A199.73,199.73,0,0,0,441.7,250Z" transform="translate(-32)"/><rect class="cls-1" x="208" y="416" width="16" height="48"/><path class="cls-1" d="M426.2,154a184.06,184.06,0,0,0-356.4,0l-15.5-4a200.06,200.06,0,0,1,387.4,0Z" transform="translate(-32)"/><path class="cls-1" d="M350.62,155.2a112,112,0,0,0-205.24,0l-14.65-6.4a127.93,127.93,0,0,1,234.54,0Z" transform="translate(-32)"/><path class="cls-1" d="M248,328a128,128,0,0,1-117.27-76.8l14.65-6.41a112,112,0,0,0,205.24,0l14.65,6.41A128,128,0,0,1,248,328Z" transform="translate(-32)"/><rect class="cls-2" y="144" width="432" height="112"/><polygon class="cls-1" points="80 224 32 224 32 176 48 176 48 208 80 208 80 224"/><path class="cls-1" d="M152,224a24,24,0,1,1,24-24A24,24,0,0,1,152,224Zm0-32a8,8,0,1,0,8,8A8,8,0,0,0,152,192Z" transform="translate(-32)"/><polygon class="cls-1" points="208 224 187.06 224 176 201.89 176 224 160 224 160 176 180.94 176 192 198.11 192 176 208 176 208 224"/><polygon class="cls-1" points="400 224 379.06 224 368 201.89 368 224 352 224 352 176 372.94 176 384 198.11 384 176 400 176 400 224"/><path class="cls-1" d="M280,224H256V176h24a24,24,0,0,1,0,48Zm-8-16h8a8,8,0,0,0,0-16h-8Z" transform="translate(-32)"/><path class="cls-1" d="M344,224a24,24,0,1,1,24-24A24,24,0,0,1,344,224Zm0-32a8,8,0,1,0,8,8A8,8,0,0,0,344,192Z" transform="translate(-32)"/><rect class="cls-1" x="208" y="480" width="16" height="16"/></svg>